<svg width="811" height="811" viewBox="0 0 811 811" fill="none" xmlns="http://www.w3.org/2000/svg">
<g clip-path="url(#clip0_2452_11204)">
<path d="M486.1 405.5C486.1 450.014 450.014 486.1 405.5 486.1C360.986 486.1 324.9 450.014 324.9 405.5C324.9 360.986 360.986 324.9 405.5 324.9C450.014 324.9 486.1 360.986 486.1 405.5Z" stroke="#0029CC"/>
<path d="M550.98 405.5C550.98 485.846 485.846 550.98 405.5 550.98C325.154 550.98 260.02 485.846 260.02 405.5C260.02 325.154 325.154 260.02 405.5 260.02C485.846 260.02 550.98 325.154 550.98 405.5Z" stroke="#0029CC"/>
<path d="M615.86 405.5C615.86 521.679 521.679 615.86 405.5 615.86C289.322 615.86 195.14 521.679 195.14 405.5C195.14 289.321 289.322 195.14 405.5 195.14C521.679 195.14 615.86 289.321 615.86 405.5Z" stroke="#0029CC"/>
<path d="M680.74 405.5C680.74 557.511 557.511 680.74 405.5 680.74C253.489 680.74 130.26 557.511 130.26 405.5C130.26 253.489 253.489 130.26 405.5 130.26C557.511 130.26 680.74 253.489 680.74 405.5Z" stroke="#0029CC"/>
<path d="M745.62 405.5C745.62 593.343 593.343 745.62 405.5 745.62C217.657 745.62 65.3799 593.343 65.3799 405.5C65.3799 217.657 217.657 65.38 405.5 65.38C593.343 65.38 745.62 217.657 745.62 405.5Z" stroke="#0029CC"/>
<path d="M810.5 405.5C810.5 629.175 629.175 810.5 405.5 810.5C181.825 810.5 0.5 629.175 0.5 405.5C0.5 181.825 181.825 0.5 405.5 0.5C629.175 0.5 810.5 181.825 810.5 405.5Z" stroke="#0029CC"/>
</g>
<defs>
<clipPath id="clip0_2452_11204">
<rect width="811" height="811" fill="white"/>
</clipPath>
</defs>
</svg>
