<svg width="173" height="173" viewBox="0 0 173 173" fill="none" xmlns="http://www.w3.org/2000/svg">
<g id="delocalizzazione" clip-path="url(#clip0_2419_3022)">
<path id="Vector" d="M86.5001 152.409C122.901 152.409 152.409 122.901 152.409 86.5001C152.409 50.0994 122.901 20.5908 86.5001 20.5908C50.0994 20.5908 20.5908 50.0994 20.5908 86.5001C20.5908 122.901 50.0994 152.409 86.5001 152.409Z" fill="#0029CC"/>
<g id="Group 2">
<g id="Group">
<path id="Vector_2" d="M11.4717 128.912C26.2759 155.039 54.3296 172.669 86.5001 172.669C134.09 172.669 172.669 134.09 172.669 86.5C172.669 59.2169 159.987 34.8947 140.201 19.1035" stroke="#0029CC" stroke-miterlimit="10"/>
<path id="Vector_3" d="M10.782 132.224L11.627 129.182L14.6622 130.027L13.7293 128.378L10.6941 127.533L9.84912 130.575L10.782 132.224Z" fill="#0029CC"/>
</g>
<g id="Group_2">
<path id="Vector_4" d="M131.203 12.8169C118.17 4.89425 102.866 0.331299 86.4998 0.331299C38.9099 0.331299 0.331055 38.9102 0.331055 86.5001C0.331055 97.3227 2.32523 107.679 5.96883 117.224" stroke="#0029CC" stroke-miterlimit="10"/>
<path id="Vector_5" d="M130.189 9.59229L130.94 12.6545L127.871 13.4049L129.493 14.3851L132.555 13.6415L131.805 10.5725L130.189 9.59229Z" fill="#0029CC"/>
</g>
</g>
</g>
<defs>
<clipPath id="clip0_2419_3022">
<rect width="173" height="173" fill="white"/>
</clipPath>
</defs>
</svg>
