<svg width="173" height="173" viewBox="0 0 173 173" fill="none" xmlns="http://www.w3.org/2000/svg">
<g id="tutela" clip-path="url(#clip0_2419_976)">
<path id="Vector" d="M86.5 150.983C122.113 150.983 150.983 122.113 150.983 86.5C150.983 50.8871 122.113 22.0171 86.5 22.0171C50.8871 22.0171 22.0171 50.8871 22.0171 86.5C22.0171 122.113 50.8871 150.983 86.5 150.983Z" fill="#0029CC"/>
<path id="Vector_2" d="M86.4999 150.983C104.98 150.983 119.961 122.113 119.961 86.5C119.961 50.8871 104.98 22.0171 86.4999 22.0171C68.02 22.0171 53.0391 50.8871 53.0391 86.5C53.0391 122.113 68.02 150.983 86.4999 150.983Z" stroke="white" stroke-miterlimit="10"/>
<path id="Vector_3" d="M22.0171 86.5H150.983" stroke="white" stroke-miterlimit="10"/>
<path id="Vector_4" d="M86.5002 172.64C134.074 172.64 172.64 134.074 172.64 86.4999C172.64 38.9262 134.074 0.360107 86.5002 0.360107C38.9265 0.360107 0.360352 38.9262 0.360352 86.4999C0.360352 134.074 38.9265 172.64 86.5002 172.64Z" stroke="#0029CC" stroke-miterlimit="10"/>
</g>
<defs>
<clipPath id="clip0_2419_976">
<rect width="173" height="173" fill="white"/>
</clipPath>
</defs>
</svg>
