<svg width="180" height="43" viewBox="0 0 180 43" fill="none" xmlns="http://www.w3.org/2000/svg">
<g id="hydac" opacity="0.3" clip-path="url(#clip0_2101_742)">
<path id="Vector" d="M158.51 1.54468C169.262 1.54468 177.995 10.2776 177.995 21.0303C177.995 31.7831 169.262 40.516 158.51 40.516H22.1695C11.4167 40.516 2.6838 31.7831 2.6838 21.0303C2.6838 10.2776 11.4167 1.54468 22.1695 1.54468H158.51Z" fill="#282828"/>
<path id="Vector_2" d="M22.1695 0.0594066C10.6147 0.0594066 1.22831 9.44579 1.22831 21.0005C1.22831 32.5553 10.6147 41.9417 22.1695 41.9417H158.51C164.094 41.9417 169.351 39.7733 173.332 35.793C177.282 31.8424 179.48 26.5849 179.48 20.9708C179.48 15.3865 177.312 10.129 173.332 6.14868C169.381 2.19808 164.124 0 158.51 0H22.1695" fill="white"/>
<path id="Vector_3" fill-rule="evenodd" clip-rule="evenodd" d="M158.51 1.54468C169.262 1.54468 177.995 10.2776 177.995 21.0303C177.995 31.7831 169.262 40.516 158.51 40.516H22.1695C11.4167 40.516 2.6838 31.7831 2.6838 21.0303C2.6838 10.2776 11.4167 1.54468 22.1695 1.54468H158.51ZM104.954 30.2979L104.984 29.4068V12.5945V11.7034C104.984 8.52506 102.399 5.94083 99.221 5.94083H98.3299H67.5568L59.8041 17.4362L52.0514 5.97054H35.8926V18.8025H22.1695V5.97054H14.6544V36.0604H22.1992V23.2284H35.9223V36.0604H43.4373V6.5052L55.8238 24.2086V36.0604H63.7844V24.1789L76.1709 6.4755V36.0604H98.3299H99.1913C102.399 36.0604 104.954 33.4762 104.954 30.2979ZM94.3496 31.6346C96.0724 31.6346 97.4387 30.2385 97.4387 28.5454V13.5153C97.4387 11.7925 96.0427 10.4261 94.3496 10.4261H93.904H83.7156V31.6643H93.904H94.3496V31.6346ZM146.123 28.0998V13.9311V13.4856C146.123 11.7628 147.519 10.4261 149.212 10.4261H149.658H156.312H156.757C158.48 10.4261 159.846 11.8222 159.846 13.5153H167.361V12.6242V11.7331C167.361 8.55476 164.777 5.97054 161.599 5.97054H160.708H145.202L144.311 6.00024C141.133 6.00024 138.549 8.58447 138.549 11.7628V12.6242V29.4365V30.3276C138.549 33.5059 141.133 36.0901 144.311 36.0901H145.202H160.708H161.599C164.777 36.0901 167.361 33.5059 167.361 30.3276V29.4365V28.5454H159.846C159.846 30.2682 158.45 31.6346 156.757 31.6346H149.242C147.519 31.6346 146.153 30.2385 146.153 28.5454L146.123 28.0998ZM117.221 25.4562H126.311L121.766 15.2678L117.221 25.4562ZM104.063 36.0604L118.231 5.97054H125.331L139.499 36.0604H131.063L128.301 29.8821H115.291L112.528 36.0604H104.063Z" fill="#282828"/>
</g>
<defs>
<clipPath id="clip0_2101_742">
<rect width="178.52" height="42.1793" fill="white" transform="translate(0.960999)"/>
</clipPath>
</defs>
</svg>
