<?xml version="1.0" encoding="UTF-8"?>
<svg id="Livello_2" data-name="Livello 2" xmlns="http://www.w3.org/2000/svg" viewBox="0 0 83.13 39.44">
  <g id="Livello_1-2" data-name="Livello 1">
    <g>
      <path d="M11.83,12.68c2.2,0,4.1,1.61,5.01,3.94h5.94c-1-5.38-5.51-8.68-10.95-8.68-6.53,0-11.83,5.3-11.83,11.84s5.3,11.83,11.83,11.83c5.44,0,9.7-3.29,10.95-8.67h-5.94c-.91,2.34-2.82,3.94-5.01,3.94-3.09,0-5.59-3.18-5.59-7.1s2.51-7.1,5.59-7.1Z" style="fill: #282828; stroke-width: 0px;"/>
      <path d="M71.86,22.35l-4.95-14.46h-6.31s7.69,22.42,7.69,22.43c.08.3.13.61.13.93,0,1.91-1.55,3.46-3.46,3.46h-2.77v4.73h4.76c1.5,0,2.89-.44,4.06-1.19,1.36-.87,2.42-2.17,2.99-3.71l9.13-26.64h-6.31l-4.95,14.45h-.01Z" style="fill: #282828; stroke-width: 0px;"/>
      <path d="M57.44,0h-6.27v31.6h6.27V0Z" style="fill: #282828; stroke-width: 0px;"/>
      <path d="M36.19,7.89c-6.53,0-11.83,5.3-11.83,11.83s5.3,11.83,11.83,11.83c5.64,0,8.85-2.06,11.51-7.1h-6.36c-1.4,2.22-3.46,2.36-5.15,2.36-3.22,0-5.37-2.76-5.37-4.73h16.96c.16-.77.24-1.55.24-2.36,0-6.53-5.3-11.83-11.83-11.83ZM30.82,17.36c0-2.65,2.89-4.73,5.37-4.73s5.36,2.08,5.36,4.73h-10.73Z" style="fill: #282828; stroke-width: 0px;"/>
    </g>
  </g>
</svg>