<svg width="126" height="39" viewBox="0 0 126 39" fill="none" xmlns="http://www.w3.org/2000/svg">
<g clip-path="url(#clip0_2006_53)">
<path d="M92.3194 24.9565C95.365 24.9565 97.834 22.5135 97.834 19.5C97.834 16.4864 95.365 14.0435 92.3194 14.0435C89.2738 14.0435 86.8049 16.4864 86.8049 19.5C86.8049 22.5135 89.2738 24.9565 92.3194 24.9565Z" fill="#282828"/>
<path d="M117.344 7.80433C114.861 7.80433 112.62 8.84781 111.038 10.5V7.80433H101.591C105.018 10.5435 107.215 14.7609 107.215 19.5C107.215 24.2391 105.018 28.4565 101.591 31.1956H111.038V16.7609C111.038 14.3913 112.994 12.4782 115.366 12.4782C117.739 12.4782 119.695 14.3913 119.695 16.7609V31.1956H126V16.3695C126 11.6304 122.111 7.78259 117.322 7.78259L117.344 7.80433Z" fill="#282828"/>
<path d="M11.8201 12.5435C14.0171 12.5435 15.9285 14.1304 16.8293 16.4348H22.7613C21.7507 11.1087 17.2467 7.84784 11.8201 7.84784C5.29486 7.86958 0 13.1087 0 19.5652C0 26.0218 5.29486 31.2609 11.8201 31.2609C17.2467 31.2609 21.509 28 22.7613 22.6739H16.8293C15.9065 24.9783 14.0171 26.5652 11.8201 26.5652C8.72223 26.5652 6.21761 23.4131 6.21761 19.5435C6.21761 15.6739 8.72223 12.5218 11.8201 12.5218V12.5435Z" fill="#282828"/>
<path d="M71.8431 22.1087L66.8997 7.80432H60.5942L68.2839 29.9782C68.3717 30.2826 68.4157 30.5869 68.4157 30.913C68.4157 32.8043 66.8558 34.3261 64.9444 34.3261H62.1761V39H66.9437C68.4377 39 69.8438 38.5652 71.0082 37.8261C72.3703 36.9565 73.4249 35.6739 73.9962 34.1521L83.1139 7.80432H76.8084L71.865 22.1087H71.8431Z" fill="#282828"/>
<path d="M57.4086 0H51.147V31.2609H57.4086V0Z" fill="#282828"/>
<path d="M36.1632 7.80432C29.638 7.80432 24.3432 13.0435 24.3432 19.5C24.3432 25.9565 29.638 31.1956 36.1632 31.1956C41.8096 31.1956 45.0173 29.1521 47.6757 24.1739H41.3262C39.9201 26.3695 37.8549 26.5217 36.1852 26.5217C32.9775 26.5217 30.8244 23.7826 30.8244 21.8478H47.7855C47.9393 21.0869 48.0272 20.3043 48.0272 19.5C48.0272 13.0435 42.7323 7.80432 36.2071 7.80432H36.1632ZM30.8024 17.1739C30.8024 14.5435 33.6806 12.5 36.1632 12.5C38.6459 12.5 41.524 14.5652 41.524 17.1739H30.8024Z" fill="#282828"/>
</g>
<defs>
<clipPath id="clip0_2006_53">
<rect width="126" height="39" fill="white"/>
</clipPath>
</defs>
</svg>
