<svg width="127" height="40" viewBox="0 0 127 40" fill="none" xmlns="http://www.w3.org/2000/svg">
<g clip-path="url(#clip0_2006_55)">
<path d="M97.0651 22.6179C98.668 20.0247 97.8651 16.6231 95.2719 15.0202C92.6786 13.4174 89.277 14.2202 87.6742 16.8134C86.0713 19.4067 86.8741 22.8083 89.4674 24.4112C92.0606 26.014 95.4622 25.2112 97.0651 22.6179Z" fill="#0029CC"/>
<path d="M117.38 7.89001C114.89 7.89001 112.65 8.94001 111.07 10.62V7.89001H101.61C105.03 10.65 107.23 14.93 107.23 19.72C107.23 24.51 105.03 28.78 101.61 31.55H111.07V16.97C111.07 14.57 113.02 12.63 115.41 12.63C117.8 12.63 119.75 14.57 119.75 16.97V31.56H126.06V16.57C126.06 11.78 122.18 7.89001 117.38 7.89001Z" fill="#282828"/>
<path d="M11.83 12.68C14.03 12.68 15.93 14.29 16.84 16.62H22.78C21.78 11.24 17.27 7.94 11.83 7.94C5.3 7.95 0 13.24 0 19.78C0 26.32 5.3 31.61 11.83 31.61C17.27 31.61 21.53 28.32 22.78 22.94H16.84C15.93 25.28 14.02 26.88 11.83 26.88C8.74 26.88 6.24 23.7 6.24 19.78C6.24 15.86 8.75 12.68 11.83 12.68Z" fill="#282828"/>
<path d="M71.86 22.35L66.91 7.89001H60.6C60.6 7.89001 68.29 30.31 68.29 30.32C68.37 30.62 68.42 30.93 68.42 31.25C68.42 33.16 66.87 34.71 64.96 34.71H62.19V39.44H66.95C68.45 39.44 69.84 39 71.01 38.25C72.37 37.38 73.43 36.08 74 34.54L83.13 7.90001H76.82L71.87 22.35H71.86Z" fill="#282828"/>
<path d="M57.44 0H51.17V31.6H57.44V0Z" fill="#282828"/>
<path d="M36.19 7.89001C29.66 7.89001 24.36 13.19 24.36 19.72C24.36 26.25 29.66 31.55 36.19 31.55C41.83 31.55 45.04 29.49 47.7 24.45H41.34C39.94 26.67 37.88 26.81 36.19 26.81C32.97 26.81 30.82 24.05 30.82 22.08H47.78C47.94 21.31 48.02 20.53 48.02 19.72C48.02 13.19 42.72 7.89001 36.19 7.89001ZM30.82 17.36C30.82 14.71 33.71 12.63 36.19 12.63C38.67 12.63 41.55 14.71 41.55 17.36H30.82Z" fill="#282828"/>
</g>
<defs>
<clipPath id="clip0_2006_55">
<rect width="126.06" height="39.44" fill="white"/>
</clipPath>
</defs>
</svg>
