<svg width="612" height="612" viewBox="0 0 612 612" fill="none" xmlns="http://www.w3.org/2000/svg">
<g clip-path="url(#clip0_2140_6027)">
<path d="M524.176 219.838C524.176 340.423 426.423 438.176 305.838 438.176C185.253 438.176 87.5 340.423 87.5 219.838C87.5 99.2532 185.253 1.5 305.838 1.5C426.423 1.5 524.176 99.2532 524.176 219.838Z" fill="#0029CC" stroke="#0029CC"/>
<path d="M306.011 610.896C474.394 610.896 610.896 474.394 610.896 306.011C610.896 137.628 474.394 1.12598 306.011 1.12598C137.628 1.12598 1.12598 137.628 1.12598 306.011C1.12598 474.394 137.628 610.896 306.011 610.896Z" stroke="#0029CC" stroke-miterlimit="10"/>
<path d="M392.818 87.6588C392.818 135.795 353.795 174.818 305.659 174.818C257.522 174.818 218.5 135.795 218.5 87.6588C218.5 39.5223 257.522 0.5 305.659 0.5C353.795 0.5 392.818 39.5223 392.818 87.6588Z" fill="#DDDDDD" stroke="#DDDDDD"/>
</g>
<defs>
<clipPath id="clip0_2140_6027">
<rect width="612" height="612" fill="white"/>
</clipPath>
</defs>
</svg>
